<svg width="242" height="162" viewBox="0 0 242 162" fill="none" xmlns="http://www.w3.org/2000/svg">
<path d="M56.7639 127.278C56.7639 127.622 56.4536 127.901 56.1107 127.901H43.897C44.2073 130.934 46.4769 133.705 49.6773 133.705C51.8653 133.705 53.4818 132.869 54.7065 131.114C54.8371 130.934 55.0167 130.803 55.229 130.803C55.5719 130.803 55.8495 131.065 55.8495 131.426C55.8495 131.557 55.8005 131.639 55.7678 131.737C54.5432 133.885 52.0939 134.951 49.6773 134.951C45.5625 134.951 42.6234 131.262 42.6234 127.294C42.6234 123.343 45.5625 119.637 49.6773 119.637C53.7921 119.621 56.7639 123.31 56.7639 127.278ZM55.4576 126.654C55.1963 123.621 52.8777 120.85 49.6773 120.85C46.4769 120.85 44.2073 123.621 43.897 126.654H55.4576ZM71.6064 119.932C71.9493 119.932 72.2269 120.244 72.2269 120.555C72.2269 120.9 71.9657 121.178 71.6064 121.178H68.3244V134.098C68.3244 134.41 68.0632 134.721 67.7039 134.721C67.361 134.721 67.0834 134.41 67.0834 134.098V121.178H63.9321C63.5892 121.178 63.3116 120.916 63.3116 120.555C63.3116 120.244 63.5728 119.932 63.9321 119.932H67.0834V115.177C67.0834 114.833 67.3447 114.554 67.7039 114.554C68.0468 114.554 68.3244 114.817 68.3244 115.177V119.932H71.6064ZM91.6251 126.179V134C91.6251 134.344 91.3149 134.623 91.0046 134.623C90.6617 134.623 90.3842 134.361 90.3842 134V126.179C90.3842 123.539 88.8983 120.9 85.9591 120.9C82.1873 120.9 80.5708 124.195 80.7994 127.589C80.7994 127.671 80.8483 128.065 80.8483 128.114V134C80.8483 134.344 80.5871 134.623 80.2279 134.623C79.885 134.623 79.6074 134.361 79.6074 134V108.275C79.6074 107.963 79.8686 107.652 80.2279 107.652C80.5708 107.652 80.8483 107.963 80.8483 108.275V122.834C81.8934 120.949 83.7875 119.67 85.9755 119.67C89.5677 119.67 91.6251 122.834 91.6251 126.179ZM113.554 127.278C113.554 127.622 113.244 127.901 112.901 127.901H100.687C100.998 130.934 103.267 133.705 106.468 133.705C108.656 133.705 110.272 132.869 111.497 131.114C111.627 130.934 111.807 130.803 112.019 130.803C112.362 130.803 112.64 131.065 112.64 131.426C112.64 131.557 112.591 131.639 112.558 131.737C111.334 133.885 108.884 134.951 106.468 134.951C102.353 134.951 99.4138 131.262 99.4138 127.294C99.4138 123.343 102.353 119.637 106.468 119.637C110.582 119.637 113.554 123.31 113.554 127.278ZM112.248 126.654C111.987 123.621 109.668 120.85 106.468 120.85C103.267 120.85 100.998 123.621 100.687 126.654H112.248ZM128.576 120.506C128.576 120.9 128.364 121.129 128.005 121.162C124.413 121.687 122.796 124.638 122.796 128.065V133.951C122.796 134.295 122.535 134.574 122.176 134.574C121.833 134.574 121.555 134.311 121.555 133.951V120.539C121.555 120.194 121.816 119.916 122.176 119.916C122.519 119.916 122.796 120.178 122.796 120.539V123.261C123.809 121.539 125.817 119.916 127.923 119.916C128.217 119.932 128.576 120.145 128.576 120.506ZM148.677 127.278C148.677 127.622 148.367 127.901 148.024 127.901H135.81C136.12 130.934 138.39 133.705 141.59 133.705C143.778 133.705 145.395 132.869 146.619 131.114C146.75 130.934 146.93 130.803 147.142 130.803C147.485 130.803 147.762 131.065 147.762 131.426C147.762 131.557 147.713 131.639 147.681 131.737C146.456 133.885 144.007 134.951 141.59 134.951C137.475 134.951 134.536 131.262 134.536 127.294C134.536 123.343 137.475 119.637 141.59 119.637C145.689 119.621 148.677 123.31 148.677 127.278ZM147.354 126.654C147.093 123.621 144.774 120.85 141.574 120.85C138.374 120.85 136.104 123.621 135.794 126.654H147.354ZM168.418 120.637V134.082C168.418 134.426 168.108 134.705 167.797 134.705C167.454 134.705 167.177 134.443 167.177 134.082V131.524C166.165 133.541 164.368 135 162.099 135C158.458 135 156.449 131.836 156.449 128.491V120.621C156.449 120.309 156.71 119.998 157.07 119.998C157.429 119.998 157.69 120.309 157.69 120.621V128.491C157.69 131.131 159.176 133.77 162.115 133.77C166.23 133.77 167.193 129.901 167.193 125.638V120.621C167.193 120.309 167.454 119.998 167.814 119.998C168.108 120.014 168.418 120.326 168.418 120.637ZM199.377 126.13V134C199.377 134.344 199.066 134.623 198.756 134.623C198.413 134.623 198.136 134.361 198.136 134V126.13C198.136 123.49 196.65 120.9 193.711 120.9C190.037 120.9 188.633 124.851 188.633 127.933V134C188.633 134.344 188.322 134.623 188.012 134.623C187.669 134.623 187.392 134.361 187.392 134V126.13C187.392 123.49 185.906 120.9 182.967 120.9C179.244 120.9 177.709 123.851 177.839 127.753C177.839 127.835 177.888 128.015 177.839 128.065V134C177.839 134.344 177.578 134.623 177.219 134.623C176.876 134.623 176.598 134.361 176.598 134V120.539C176.598 120.194 176.86 119.916 177.219 119.916C177.562 119.916 177.839 120.178 177.839 120.539V122.785C178.884 120.9 180.779 119.67 182.967 119.67C185.465 119.67 187.392 121.26 188.175 123.588C189.188 121.309 191.147 119.67 193.694 119.67C197.319 119.67 199.377 122.785 199.377 126.13ZM121 51.7743V27L100.524 61.1199L121 51.7743Z" fill="#8A92B2"/>
<path d="M121 73.2857V51.7743L100.524 61.1199L121 73.2857ZM121 51.7743L141.476 61.1199L121 27V51.7743Z" fill="#62688F"/>
<path d="M121 51.7743V73.2857L141.476 61.1199L121 51.7743Z" fill="#454A75"/>
<path d="M121 77.1716L100.524 65.0222L121 94.0102V77.1716Z" fill="#8A92B2"/>
<path d="M141.492 65.0222L121 77.1716V94.0102L141.492 65.0222Z" fill="#62688F"/>
</svg>
